<svg xmlns="http://www.w3.org/2000/svg" viewBox="0 0 200 200" role="img" aria-label="Pizza">
  <!-- Fondo transparente -->
  <defs>
    <!-- Sombrilla simple para toppings -->
    <filter id="s" x="-20%" y="-20%" width="140%" height="140%">
      <feDropShadow dx="0" dy="1" stdDeviation="1" flood-opacity="0.25"/>
    </filter>
  </defs>

  <!-- Sombra de la pizza -->
  <ellipse cx="100" cy="150" rx="70" ry="10" fill="#000" opacity="0.08"/>

  <!-- Borde (corteza) -->
  <circle cx="100" cy="100" r="88" fill="#d19a57" stroke="#b37b3d" stroke-width="4"/>

  <!-- Salsa (ligera) -->
  <circle cx="100" cy="100" r="76" fill="#d6523f"/>

  <!-- Queso -->
  <circle cx="100" cy="100" r="72" fill="#f7d978"/>

  <!-- Rebanadas (líneas) -->
  <g stroke="#e3b94b" stroke-width="3" stroke-linecap="round" opacity="0.7">
    <line x1="100" y1="28" x2="100" y2="172"/>
    <line x1="28"  y1="100" x2="172" y2="100"/>
    <line x1="43"  y1="57"  x2="157" y2="143"/>
    <line x1="57"  y1="157" x2="143" y2="43"/>
  </g>

  <!-- Pepperoni -->
  <g filter="url(#s)">
    <circle cx="70"  cy="80"  r="10" fill="#bd2e2e" stroke="#8f1f1f" stroke-width="2"/>
    <circle cx="120" cy="70"  r="10" fill="#bd2e2e" stroke="#8f1f1f" stroke-width="2"/>
    <circle cx="135" cy="115" r="10" fill="#bd2e2e" stroke="#8f1f1f" stroke-width="2"/>
    <circle cx="85"  cy="125" r="10" fill="#bd2e2e" stroke="#8f1f1f" stroke-width="2"/>
    <circle cx="105" cy="100" r="10" fill="#bd2e2e" stroke="#8f1f1f" stroke-width="2"/>
  </g>

  <!-- Albahaca (hojitas) -->
  <g fill="#2f8f4e" filter="url(#s)">
    <path d="M58,102c8,-8 18,-8 26,0c-8,8 -18,8 -26,0Z"/>
    <path d="M118,132c7,-6 15,-6 22,0c-7,6 -15,6 -22,0Z"/>
    <path d="M80,62c6,-5 13,-5 19,0c-6,5 -13,5 -19,0Z"/>
  </g>

  <!-- Detalles de queso (manchitas) -->
  <g fill="#ffe289" opacity="0.6">
    <circle cx="90"  cy="92"  r="4"/>
    <circle cx="120" cy="90"  r="3.5"/>
    <circle cx="110" cy="120" r="4"/>
    <circle cx="75"  cy="110" r="3.5"/>
    <circle cx="130" cy="105" r="3.2"/>
  </g>
</svg>
